HIERARCHY
ROOT Hips
{
	OFFSET 0.000000 0.000000 0.000000
	CHANNELS 6 Xposition Yposition Zposition Yrotation Xrotation Zrotation
	JOINT Chest
	{
		OFFSET 0.000000 -0.009281 11.569106
		CHANNELS 3 Yrotation Xrotation Zrotation
		JOINT Chest2
		{
			OFFSET -0.000000 0.016865 9.269641
			CHANNELS 3 Yrotation Xrotation Zrotation
			JOINT Chest3
			{
				OFFSET -0.000000 0.000001 8.374491
				CHANNELS 3 Yrotation Xrotation Zrotation
				JOINT Chest4
				{
					OFFSET -0.000000 0.000001 8.374493
					CHANNELS 3 Yrotation Xrotation Zrotation
					JOINT Neck
					{
						OFFSET -0.000000 0.000002 12.152554
						CHANNELS 3 Yrotation Xrotation Zrotation
						JOINT Head
						{
							OFFSET -0.000000 0.040101 7.802319
							CHANNELS 3 Yrotation Xrotation Zrotation
							End Site
							{
								OFFSET -0.000000 0.020947 14.853096
							}
						}
					}
					JOINT RightCollar
					{
						OFFSET 2.894404 0.000001 6.791374
						CHANNELS 3 Yrotation Xrotation Zrotation
						JOINT RightShoulder
						{
							OFFSET 13.574684 0.000001 0.000000
							CHANNELS 3 Yrotation Xrotation Zrotation
							JOINT RightElbow
							{
								OFFSET 23.923903 0.000002 0.000000
								CHANNELS 3 Yrotation Xrotation Zrotation
								JOINT RightWrist
								{
									OFFSET 19.846718 0.012767 0.000000
									CHANNELS 3 Yrotation Xrotation Zrotation
									End Site
									{
										OFFSET 14.973145 0.000001 0.000000
									}
								}
							}
						}
					}
					JOINT LeftCollar
					{
						OFFSET -2.894404 0.000001 6.791374
						CHANNELS 3 Yrotation Xrotation Zrotation
						JOINT LeftShoulder
						{
							OFFSET -13.574684 -0.000001 0.000000
							CHANNELS 3 Yrotation Xrotation Zrotation
							JOINT LeftElbow
							{
								OFFSET -23.923903 -0.000002 0.000000
								CHANNELS 3 Yrotation Xrotation Zrotation
								JOINT LeftWrist
								{
									OFFSET -19.846718 0.012763 0.000000
									CHANNELS 3 Yrotation Xrotation Zrotation
									End Site
									{
										OFFSET -14.973145 -0.000001 0.000000
									}
								}
							}
						}
					}
				}
			}
		}
	}
	JOINT RightHip
	{
		OFFSET 9.469263 0.004643 0.045487
		CHANNELS 3 Yrotation Xrotation Zrotation
		JOINT RightKnee
		{
			OFFSET 0.000000 0.002661 -40.478676
			CHANNELS 3 Yrotation Xrotation Zrotation
			JOINT RightAnkle
			{
				OFFSET 0.000000 0.049106 -35.224068
				CHANNELS 3 Yrotation Xrotation Zrotation
				JOINT RightToe
				{
					OFFSET -0.000001 12.539529 -6.151390
					CHANNELS 3 Yrotation Xrotation Zrotation
					End Site
					{
						OFFSET -0.000001 5.044994 -1.291870
					}
				}
			}
		}
	}
	JOINT LeftHip
	{
		OFFSET -9.469263 0.004641 0.045487
		CHANNELS 3 Yrotation Xrotation Zrotation
		JOINT LeftKnee
		{
			OFFSET 0.000000 0.002661 -40.478676
			CHANNELS 3 Yrotation Xrotation Zrotation
			JOINT LeftAnkle
			{
				OFFSET 0.000000 0.049106 -35.224068
				CHANNELS 3 Yrotation Xrotation Zrotation
				JOINT LeftToe
				{
					OFFSET -0.000001 12.539529 -6.151390
					CHANNELS 3 Yrotation Xrotation Zrotation
					End Site
					{
						OFFSET -0.000001 5.044994 -1.291870
					}
				}
			}
		}
	}
}
MOTION
Frames: 7
Frame Time: 0.016667
6.449701 -2.735193 82.972160 -4.232006 0.631189 -113.969179 -7.751892 -0.145376 5.072133 -3.353794 -0.143705 2.254108 -3.353793 -0.143706 2.254104 -2.514854 -0.120156 1.689848 2.895917 -18.287089 -10.557586 1.873277 1.987802 -18.448602 4.494030 14.431812 -2.208529 49.703686 37.334685 50.239310 -30.190823 2.427464 52.058903 -69.575865 22.121453 48.183190 -8.658667 5.415122 -6.098042 -40.436516 50.867789 -14.473840 2.890348 15.655559 -21.997164 69.942216 6.853073 -53.948253 2.027756 -4.798706 3.336738 2.154365 -4.926063 3.252924 -5.177525 6.152987 -7.027425 -0.559224 -0.364286 -0.196921 0.161899 -6.185528 -2.306872 0.530323 -3.134297 3.700918 3.108589 4.343972 2.985610 0.233141 0.208559 0.090784 
6.457060 -2.765355 82.970619 -4.114420 0.706882 -113.849261 -7.762903 -0.126208 5.047187 -3.350377 -0.132832 2.248286 -3.350375 -0.132832 2.248288 -2.512332 -0.111955 1.685546 2.906361 -18.282695 -10.592290 1.880846 1.994511 -18.509160 4.370997 14.813202 -2.273520 49.147186 36.971770 50.270271 -30.534074 2.874588 52.265226 -69.464936 22.001974 48.212823 -8.641912 5.635964 -6.080115 -40.107629 50.728450 -14.523402 2.759005 15.764229 -22.871645 70.038419 6.857914 -53.575454 2.049551 -4.919295 3.120264 2.061442 -4.452386 3.078401 -4.985054 6.080331 -6.671179 -0.567675 -0.373438 -0.214343 0.205371 -6.148713 -2.269868 0.485275 -2.897576 3.509572 3.071288 4.158478 3.021191 0.233392 0.185007 0.096712 
6.446806 -2.795830 82.965584 -4.013274 0.739229 -113.740073 -7.748516 -0.133600 5.030430 -3.351748 -0.130371 2.248564 -3.351748 -0.130371 2.248563 -2.513369 -0.110117 1.685768 2.930191 -18.266313 -10.628396 1.910946 2.024942 -18.568574 4.281478 15.007006 -2.326861 48.825088 36.784711 50.406420 -30.873022 3.317935 52.592784 -69.300138 21.946421 48.322461 -8.622356 5.780488 -6.060198 -39.986106 50.621933 -14.703939 2.704649 15.909457 -23.727112 70.108436 7.011846 -53.369732 2.118094 -5.029342 2.888853 1.950085 -4.047197 2.922195 -4.816158 6.022943 -6.345116 -0.549773 -0.381831 -0.198336 0.281627 -6.072393 -2.250342 0.453567 -2.792916 3.275260 3.036868 4.038394 3.080420 0.217961 0.157066 0.097649 
6.423752 -2.825783 82.958656 -3.925949 0.755483 -113.644936 -7.720304 -0.159846 5.010616 -3.349183 -0.135032 2.248245 -3.349183 -0.135032 2.248247 -2.511430 -0.113601 1.685506 2.946272 -18.240712 -10.654772 1.928839 2.072183 -18.613200 4.173387 14.986308 -2.384678 48.809771 36.736135 50.723119 -31.213497 3.734815 52.992398 -69.127095 22.019917 48.497721 -8.629516 5.880024 -6.030408 -40.046909 50.559471 -14.957725 2.691528 16.068577 -24.558970 70.165502 7.324174 -53.261409 2.211145 -5.118537 2.670460 1.839025 -3.700637 2.800942 -4.677404 5.979939 -6.137061 -0.525051 -0.395522 -0.180756 0.353739 -5.957048 -2.246469 0.433384 -2.803671 3.022524 3.023148 3.988145 3.201658 0.186844 0.118404 0.097362 
6.373986 -2.856704 82.951569 -3.782506 0.721830 -113.610559 -7.630849 -0.139248 5.025797 -3.347313 -0.139014 2.251897 -3.347313 -0.139014 2.251898 -2.510011 -0.116601 1.688220 2.961199 -18.219565 -10.671420 1.948238 2.111824 -18.640076 4.093486 14.899320 -2.417036 48.970684 36.715146 51.015684 -31.547063 4.143437 53.454174 -68.931943 22.118015 48.713818 -8.626800 5.900109 -6.017878 -40.270693 50.582066 -15.225923 2.631488 16.269628 -25.404395 70.224119 7.844193 -53.232592 2.376352 -5.098140 2.543254 1.771049 -3.457190 2.677490 -4.630587 5.895282 -6.011649 -0.457720 -0.359658 -0.078446 0.488274 -5.758728 -2.241687 0.429976 -2.902319 2.792610 3.015218 3.970907 3.341000 0.139666 0.087741 0.088944 
6.313087 -2.859113 82.948914 -3.713369 0.741503 -113.586599 -7.638298 -0.159085 5.043299 -3.353627 -0.150360 2.262696 -3.353626 -0.150360 2.262700 -2.514703 -0.125193 1.696258 2.997974 -18.203106 -10.686430 2.008654 2.145758 -18.656445 4.084984 14.993090 -2.458360 49.202289 36.549978 51.091707 -31.797953 4.575304 54.028716 -68.737050 22.232197 48.949241 -8.576613 5.808557 -6.070308 -40.673636 50.709862 -15.521735 2.498035 16.577192 -26.261770 70.278835 8.593618 -53.276281 2.384122 -5.031043 2.476346 1.796249 -3.375924 2.545335 -4.556387 5.902246 -5.809496 -0.440091 -0.348652 -0.082104 0.513789 -5.559021 -2.261517 0.437988 -3.073999 2.595136 3.034215 3.982285 3.484535 0.091569 0.059289 0.088485 
6.236140 -2.849873 82.949402 -3.703590 0.784813 -113.577857 -7.701235 -0.211419 5.059204 -3.363582 -0.165031 2.276725 -3.363582 -0.165031 2.276724 -2.522111 -0.136311 1.706695 3.054090 -18.202212 -10.698247 2.107334 2.153675 -18.659652 4.133927 15.083523 -2.489923 49.626351 36.366506 51.090440 -31.937927 5.034425 54.786846 -68.587011 22.400789 49.153313 -8.540897 5.739337 -6.109166 -41.177797 50.788225 -15.800514 2.345712 16.917416 -27.061698 70.361822 9.581198 -53.329881 2.326234 -4.937183 2.472838 1.833372 -3.416222 2.401981 -4.455075 5.974957 -5.611579 -0.449518 -0.359263 -0.144003 0.485430 -5.370968 -2.277054 0.453865 -3.292750 2.428706 3.055651 4.021658 3.607987 0.048614 0.023901 0.089990 
